# xmcd CD database file
#
# Track frame offsets:
#	150
#	20229
#	35622
#	55700
#
# Disc length: 945 seconds
#
# Revision: 0
# Processed by: cddbd v1.5PL3 Copyright (c) Steve Scherf et al.
# Submitted via: CDex 1.51
#
DISCID=2f03af04
DTITLE=椎名　へきる - スタンバイ！
DYEAR=2003
DGENRE=Pop
TTITLE0=スタンバイ！
TTITLE1=Rolling Lonely Diamond
TTITLE2=スタンバイ！（Backtracks）
TTITLE3=Rolling Lonely Diamond （Backtracks）
EXTD=YEAR: 2003
EXTT0=
EXTT1=
EXTT2=
EXTT3=
PLAYORDER=
